<svg width="28" height="25" viewBox="0 0 28 25" fill="none" xmlns="http://www.w3.org/2000/svg">
<path d="M27.8853 14.6766C27.7712 14.508 27.5856 14.3955 27.3773 14.3686C24.6373 14.0267 22.7061 11.627 23.0641 9.00889C23.3169 7.15946 24.6721 5.61946 26.5356 5.06407C26.914 4.94824 27.1224 4.56115 27.0012 4.19958C26.9823 4.14337 26.956 4.08958 26.9227 4.03964C25.6653 1.87138 23.4295 0.380138 20.8658 0C19.574 0.058905 18.3008 0.319495 17.097 0.771364C16.2324 1.10382 15.3195 1.30742 14.3903 1.37497C13.4609 1.30742 12.548 1.10382 11.6835 0.771364C10.4796 0.319495 9.20649 0.058905 7.91461 0C5.22797 0 0 3.63957 0 10.3124C0 16.6538 4.84085 24.7498 8.63415 24.7498C10.0815 24.7621 11.5115 24.4474 12.8073 23.8313C13.2953 23.5741 13.8348 23.4184 14.3903 23.3748C14.9457 23.4184 15.4852 23.5741 15.9732 23.8313C17.2691 24.4474 18.6991 24.7621 20.1465 24.7498C23.154 24.7498 26.5487 19.8163 27.9704 15.2445C28.0299 15.0525 27.9988 14.845 27.8853 14.6766Z" fill="black"/>
</svg>
