<svg width="88" height="19" viewBox="0 0 88 19" fill="none" xmlns="http://www.w3.org/2000/svg">
<path d="M18.9449 9.58415L18.9433 1.17801C18.9387 0.472473 19.3997 0 20.0967 0C20.7935 0 21.2453 0.474058 21.2499 1.17801L21.2437 9.27657C21.2453 13.2909 22.8798 14.9843 26.8643 14.9843L29.7607 14.9763C30.4531 14.9843 30.9141 15.4424 30.9141 16.1543C30.9141 16.8662 30.4515 17.3403 29.7607 17.3323L26.5228 17.3308C21.6784 17.3434 18.9387 14.5435 18.9449 9.58415ZM58.0173 0.147452H59.6891C64.5428 0.147452 67.2608 2.92836 67.2685 7.89722V16.3145C67.2608 17.0232 66.806 17.483 66.1121 17.483C65.4183 17.483 64.9526 17.0232 64.9588 16.3145L64.9449 8.20321C64.9542 4.18088 63.3259 2.51931 59.3491 2.51931H58.3604C54.3836 2.51931 52.7414 4.18088 52.7398 8.20321L52.746 16.3033C52.7414 17.0232 52.2896 17.4813 51.5926 17.4813C50.8958 17.4813 50.4331 17.0216 50.4394 16.3033L50.4409 7.89722C50.4316 2.92836 53.1635 0.147452 58.0173 0.147452ZM7.57954 0.147452H9.25129C13.866 0.147452 16.823 2.65883 16.8199 7.38986C16.823 12.0876 13.8645 14.6418 9.25129 14.6323L5.93729 14.6339C5.23569 14.6418 4.784 14.1677 4.784 13.4559C4.784 12.744 5.23569 12.2842 5.93729 12.2779L8.90979 12.2858C12.6398 12.2858 14.5056 10.8446 14.5056 7.39145C14.5056 3.94148 12.6398 2.52089 8.90979 2.52089H7.92103C3.94425 2.52089 2.302 4.18247 2.30045 8.20479L2.30666 16.305C2.302 17.0248 1.85031 17.483 1.15336 17.483C0.456414 17.483 -0.00614713 17.0232 6.17458e-05 16.305L0.00161385 7.89881C-0.00614724 2.92836 2.72576 0.147452 7.57954 0.147452ZM77.153 0.147452H78.8248C83.6785 0.147452 86.4042 2.9236 86.4042 7.89722V11.9306C86.3965 12.652 85.9464 13.1276 85.2494 13.1276C84.5525 13.1276 84.0899 12.652 84.0961 11.9306L84.0806 8.20321C84.0899 4.18088 82.4616 2.51931 78.4849 2.51931H77.4961C73.5193 2.51931 71.8755 4.16978 71.8755 8.20321V9.27657C71.8755 13.31 73.5116 14.9843 77.4961 14.9843H83.8881C85.5365 14.9843 86.1093 15.4013 86.9942 16.3033L87.5281 16.8487C88.1039 17.4402 88.1567 18.152 87.6647 18.6546C87.1742 19.1557 86.4943 19.1334 85.8268 18.4437L85.2432 17.8491C84.9576 17.5622 84.6922 17.3418 83.9751 17.3308L77.1562 17.3323C72.3117 17.3418 69.5766 14.5562 69.5766 9.58256V7.89722C69.5751 2.92519 72.2993 0.147452 77.153 0.147452ZM33.6025 8.20479V9.27816C33.6025 13.3116 35.2448 14.9858 39.223 14.9858H40.2118C44.1886 14.9858 45.8075 13.3116 45.8075 9.27816V8.20479C45.8075 4.17137 44.1886 2.52089 40.2118 2.52089H39.223C35.2448 2.52089 33.6025 4.16978 33.6025 8.20479ZM38.88 0.147452H40.5517C45.4056 0.147452 48.1313 2.9236 48.1313 7.89722V9.58256C48.1313 14.5562 45.4071 17.3323 40.5517 17.3323H38.88C34.0262 17.3323 31.3005 14.5562 31.3005 9.58256V7.89722C31.302 2.92519 34.0262 0.147452 38.88 0.147452Z" fill="black"/>
</svg>
