<svg width="88" height="19" viewBox="0 0 88 19" fill="none" xmlns="http://www.w3.org/2000/svg">
<path d="M18.949 9.58871V1.17901C18.94 0.469763 19.4085 0 20.1023 0C20.7961 0 21.2557 0.469763 21.2557 1.17901L21.2467 9.28474C21.2467 13.3008 22.8866 14.9956 26.8692 14.9956L29.7705 14.9864C30.4643 14.9956 30.9238 15.4561 30.9238 16.1654C30.9238 16.8746 30.4643 17.3536 29.7705 17.3444H26.5358C21.6792 17.3536 18.94 14.5535 18.949 9.58871ZM58.0181 0.138166H59.6941C64.5507 0.138166 67.2628 2.9199 67.2718 7.89387V16.322C67.2628 17.0312 66.8123 17.4918 66.1185 17.4918C65.4247 17.4918 64.9561 17.0312 64.9651 16.322L64.9471 8.20705C64.9561 4.18182 63.3253 2.51462 59.3517 2.51462H58.3605C54.3869 2.51462 52.738 4.17261 52.738 8.20705L52.747 16.3128C52.738 17.0312 52.2875 17.4918 51.5937 17.4918C50.8999 17.4918 50.4314 17.0312 50.4404 16.3128V7.89387C50.4314 2.9199 53.1615 0.138166 58.0181 0.138166ZM7.57788 0.138166H9.25381C13.8671 0.138166 16.8226 2.65278 16.8226 7.38726C16.8226 12.0849 13.8671 14.6456 9.25381 14.6364H5.93798C5.23517 14.6456 4.78465 14.1666 4.78465 13.4573C4.78465 12.7481 5.23517 12.2875 5.93798 12.2783L8.91142 12.2875C12.6417 12.2875 14.5069 10.8414 14.5069 7.38726C14.5069 3.93312 12.6417 2.51462 8.91142 2.51462H7.92027C3.94669 2.51462 2.29778 4.17261 2.29778 8.20705L2.30679 16.3128C2.29778 17.0312 1.84726 17.4918 1.15346 17.4918C0.459659 17.4918 -0.00888269 17.0312 0.000127718 16.3128V7.89387C-0.00888269 2.9199 2.72127 0.138166 7.57788 0.138166ZM77.1562 0.138166H78.8322C83.6888 0.138166 86.4099 2.9199 86.4099 7.89387V11.9283C86.4009 12.6468 85.9504 13.1257 85.2566 13.1257C84.5628 13.1257 84.0942 12.6468 84.1032 11.9283L84.0852 8.19784C84.0942 4.17261 82.4634 2.5054 78.4898 2.5054H77.4986C73.525 2.5054 71.8761 4.15419 71.8761 8.19784V9.27553C71.8761 13.31 73.516 14.9864 77.4986 14.9864H83.887C85.5359 14.9864 86.1126 15.4009 86.9956 16.3036L87.5272 16.847C88.1039 17.4365 88.1579 18.155 87.6624 18.6524C87.1668 19.159 86.491 19.1314 85.8242 18.4405L85.2386 17.8418C84.9502 17.5563 84.6889 17.3352 83.9681 17.326H77.1472C72.2996 17.3352 69.5695 14.5443 69.5695 9.57028V7.88466C69.5785 2.9199 72.2996 0.138166 77.1562 0.138166ZM33.5999 8.20705V9.28474C33.5999 13.3192 35.2398 14.9956 39.2224 14.9956H40.2136C44.1872 14.9956 45.809 13.3192 45.809 9.28474V8.20705C45.809 4.17261 44.1872 2.51462 40.2136 2.51462H39.2224C35.2488 2.51462 33.5999 4.1634 33.5999 8.20705ZM38.88 0.138166H40.556C45.4126 0.138166 48.1337 2.9199 48.1337 7.89387V9.57949C48.1337 14.5535 45.4126 17.3352 40.556 17.3352H38.88C34.0234 17.3352 31.3023 14.5535 31.3023 9.57949V7.89387C31.3023 2.9199 34.0324 0.138166 38.88 0.138166Z" fill="black"/>
</svg>
