<svg width="219" height="35" viewBox="0 0 219 35" fill="none" xmlns="http://www.w3.org/2000/svg">
<path d="M30.1461 19.1401V5.8616C30.1318 4.74173 30.8772 4 31.981 4C33.0848 4 33.8158 4.74173 33.8158 5.8616L33.8015 18.6601C33.8015 25.0012 36.4105 27.6773 42.7464 27.6773L47.3622 27.6627C48.466 27.6773 49.1971 28.4045 49.1971 29.5243C49.1971 30.6442 48.466 31.4005 47.3622 31.386H42.216C34.4896 31.4005 30.1318 26.9792 30.1461 19.1401ZM92.3013 4.21816H94.9679C102.694 4.21816 107.009 8.61037 107.023 16.464V29.7716C107.009 30.8914 106.292 31.6186 105.189 31.6186C104.085 31.6186 103.339 30.8914 103.354 29.7716L103.325 16.9585C103.339 10.6029 100.745 7.97045 94.4234 7.97045H92.8466C86.5245 7.97045 83.9013 10.5883 83.9013 16.9585L83.916 29.757C83.9013 30.8914 83.1844 31.6186 82.0813 31.6186C80.9775 31.6186 80.2318 30.8914 80.2458 29.757V16.464C80.2318 8.61037 84.5755 4.21816 92.3013 4.21816ZM12.0557 4.21816H14.722C22.0614 4.21816 26.7632 8.1886 26.7632 15.6641C26.7632 23.0814 22.0614 27.1246 14.722 27.1101H9.44676C8.32868 27.1246 7.61195 26.3683 7.61195 25.2485C7.61195 24.1286 8.32868 23.4014 9.44676 23.3868L14.1773 23.4014C20.1118 23.4014 23.0792 21.118 23.0792 15.6641C23.0792 10.2102 20.1118 7.97045 14.1773 7.97045H12.6004C6.27882 7.97045 3.65556 10.5883 3.65556 16.9585L3.6699 29.757C3.65556 30.8914 2.93882 31.6186 1.83505 31.6186C0.731276 31.6186 -0.0141315 30.8914 0.000203188 29.757V16.464C-0.0141315 8.61037 4.3293 4.21816 12.0557 4.21816ZM122.748 4.21816H125.415C133.142 4.21816 137.471 8.61037 137.471 16.464V22.8342C137.456 23.9686 136.74 24.7249 135.636 24.7249C134.532 24.7249 133.786 23.9686 133.801 22.8342L133.772 16.944C133.786 10.5883 131.192 7.95591 124.87 7.95591H123.294C116.972 7.95591 114.348 10.5592 114.348 16.944V18.6456C114.348 25.0158 116.958 27.6627 123.294 27.6627H133.457C136.08 27.6627 136.997 28.3172 138.402 29.7425L139.248 30.6006C140.165 31.5314 140.251 32.6658 139.463 33.4512C138.674 34.251 137.599 34.2074 136.538 33.1167L135.607 32.1713C135.148 31.7205 134.732 31.3714 133.586 31.3569H122.734C115.022 31.3714 110.679 26.9646 110.679 19.111V16.4495C110.693 8.61038 115.022 4.21816 122.748 4.21816ZM53.4545 16.9585V18.6601C53.4545 25.0303 56.0634 27.6773 62.3994 27.6773H63.9761C70.2978 27.6773 72.8781 25.0303 72.8781 18.6601V16.9585C72.8781 10.5883 70.2978 7.97045 63.9761 7.97045H62.3994C56.0777 7.97045 53.4545 10.5738 53.4545 16.9585ZM61.8546 4.21816H64.5209C72.2473 4.21816 76.5764 8.61037 76.5764 16.464V19.1256C76.5764 26.9792 72.2473 31.3714 64.5209 31.3714H61.8546C54.1282 31.3714 49.7991 26.9792 49.7991 19.1256V16.464C49.7991 8.61037 54.1425 4.21816 61.8546 4.21816Z" fill="white"/>
<path d="M208.829 1H164.171C159.106 1 155 5.1441 155 10.2561V24.7439C155 29.8559 159.106 34 164.171 34H208.829C213.894 34 218 29.8559 218 24.7439V10.2561C218 5.1441 213.894 1 208.829 1Z" stroke="white" stroke-width="2"/>
<path d="M172.189 25C170.266 25 168.536 24.2334 167 22.7003L168.079 21.5193C169.449 22.8453 170.826 23.5083 172.21 23.5083C173.248 23.5083 174.092 23.2045 174.742 22.5967C175.392 21.9889 175.717 21.2086 175.717 20.2555C175.717 19.3577 175.379 18.6257 174.7 18.0594C174.036 17.4931 173.171 17.2099 172.106 17.2099C171.11 17.2099 170.093 17.4862 169.055 18.0387L167.955 17.3135L168.37 10.2486H176.735V11.761H169.802L169.491 16.4019C170.473 15.9738 171.428 15.7597 172.355 15.7597C173.808 15.7597 175.005 16.1671 175.946 16.982C176.901 17.7831 177.378 18.8674 177.378 20.2348C177.378 21.6436 176.894 22.7901 175.925 23.674C174.956 24.5579 173.711 25 172.189 25ZM190.461 22.8246C189.326 24.2749 187.845 25 186.019 25C184.192 25 182.712 24.2818 181.577 22.8453C180.456 21.395 179.896 19.6133 179.896 17.5C179.896 15.4144 180.463 13.6464 181.598 12.1961C182.746 10.7321 184.234 10 186.06 10C187.887 10 189.361 10.7251 190.481 12.1754C191.602 13.6119 192.163 15.3867 192.163 17.5C192.163 19.5856 191.595 21.3606 190.461 22.8246ZM182.843 21.7472C183.673 22.9212 184.746 23.5083 186.06 23.5083C187.375 23.5083 188.434 22.9282 189.236 21.768C190.052 20.594 190.461 19.1713 190.461 17.5C190.461 15.8563 190.046 14.4475 189.215 13.2735C188.399 12.0856 187.333 11.4917 186.019 11.4917C184.704 11.4917 183.639 12.0787 182.822 13.2528C182.006 14.413 181.598 15.8287 181.598 17.5C181.598 19.1437 182.013 20.5594 182.843 21.7472ZM205.298 22.8246C204.163 24.2749 202.683 25 200.856 25C199.03 25 197.549 24.2818 196.414 22.8453C195.294 21.395 194.733 19.6133 194.733 17.5C194.733 15.4144 195.301 13.6464 196.435 12.1961C197.584 10.7321 199.071 10 200.898 10C202.724 10 204.198 10.7251 205.319 12.1754C206.44 13.6119 207 15.3867 207 17.5C207 19.5856 206.433 21.3606 205.298 22.8246ZM197.681 21.7472C198.511 22.9212 199.583 23.5083 200.898 23.5083C202.212 23.5083 203.271 22.9282 204.073 21.768C204.89 20.594 205.298 19.1713 205.298 17.5C205.298 15.8563 204.883 14.4475 204.053 13.2735C203.236 12.0856 202.171 11.4917 200.856 11.4917C199.542 11.4917 198.476 12.0787 197.66 13.2528C196.843 14.413 196.435 15.8287 196.435 17.5C196.435 19.1437 196.85 20.5594 197.681 21.7472Z" fill="white"/>
</svg>
