<svg width="185" height="40" viewBox="0 0 185 40" fill="none" xmlns="http://www.w3.org/2000/svg">
<path d="M28.1127 21.5582V9.09068C28.1127 8.05171 28.8997 7.27246 29.6868 7.27246C30.4738 7.27246 31.2609 8.05171 31.2609 9.09068V21.0387C31.2609 27.0127 33.622 29.3504 39.6561 29.3504H43.8538C44.9032 29.3504 45.4279 30.1296 45.4279 31.1686C45.4279 32.2076 44.6408 32.9867 43.8538 32.9867H39.1315C32.048 32.9867 28.1127 28.8309 28.1127 21.5582ZM85.5676 7.53222H87.9289C95.0124 7.53222 99.21 11.688 99.21 18.9608V31.4283C99.21 32.4672 98.4229 33.2465 97.6358 33.2465C96.5864 33.2465 95.7993 32.4672 96.0617 31.4283V19.4803C96.0617 13.5063 93.7006 11.1686 87.9289 11.1686H86.3547C80.583 11.1686 77.9595 13.5063 77.9595 19.4803V31.4283C77.9595 32.4672 77.1724 33.2465 76.3853 33.2465C75.3359 33.2465 74.5489 32.4672 74.8113 31.4283V18.9608C74.5489 11.688 78.4841 7.53222 85.5676 7.53222ZM11.3222 7.53222H13.6833C20.5045 7.53222 24.9645 11.1686 24.9645 18.1816C24.9645 25.1946 20.5045 28.8309 13.6833 28.8309H8.69866C7.64925 28.8309 7.12453 28.0517 7.12453 27.0127C7.12453 25.9738 7.91161 25.1945 8.69866 25.1945H13.1587C18.6681 25.1945 21.2915 23.1166 21.2915 17.9218C21.2915 12.727 18.6681 10.6491 13.1587 10.6491H11.5845C5.81281 10.6491 3.18926 12.9867 3.18926 18.9608V30.9089C3.18926 31.9478 2.40219 32.727 1.61514 32.727C0.828081 32.727 -0.221261 31.9478 0.0410904 30.9089V18.4413C0.0410904 11.688 4.23868 7.53222 11.3222 7.53222ZM113.902 7.53222H116.263C123.346 7.53222 127.544 11.688 127.544 18.9608V24.9348C127.544 25.9737 126.757 26.753 125.97 26.753C124.92 26.753 124.133 25.9737 124.396 24.9348V19.4803C124.396 13.5063 122.035 11.1686 116.263 11.1686H114.689C108.917 11.1686 106.293 13.5063 106.293 19.4803V21.0387C106.293 27.0127 108.655 29.3504 114.689 29.3504H124.133C126.495 29.3504 127.282 29.8698 128.593 31.4283L129.38 32.2076C130.167 32.9868 130.43 34.0257 129.643 34.805C128.856 35.5842 127.806 35.5842 127.019 34.5452L126.232 33.766C125.707 33.2465 125.445 32.9867 124.396 32.9867H114.426C107.343 32.9867 103.145 28.8309 103.145 21.5582V18.9608C102.621 11.688 106.556 7.53222 113.902 7.53222ZM49.6255 19.4803V21.0387C49.6255 27.0127 51.9866 29.3504 58.0207 29.3504H59.5948C65.3666 29.3504 67.7278 26.753 67.7278 21.0387V19.4803C67.7278 13.5063 65.3666 11.1686 59.5948 11.1686H58.0207C51.9866 11.1686 49.6255 13.5063 49.6255 19.4803ZM57.4961 7.53222H59.8572C66.9407 7.53222 71.1383 11.688 71.1383 18.9608V21.5582C71.1383 28.8309 67.2031 32.9867 59.8572 32.9867H57.4961C50.4126 32.9867 46.2149 28.8309 46.2149 21.5582V18.9608C46.2149 11.688 50.1502 7.53222 57.4961 7.53222Z" fill="black"/>
<path d="M173.452 28.3119H169.255L165.319 22.0782L161.384 28.3119H157.449L163.22 20.0002L157.711 12.208H161.909L165.582 18.1821L169.255 12.208H173.19L167.68 20.26L173.452 28.3119Z" fill="black"/>
<path fill-rule="evenodd" clip-rule="evenodd" d="M171.357 3.11684H158.764C152.993 3.11684 148.008 7.79218 148.008 13.7662V26.2337C148.008 32.2077 152.73 36.8831 158.764 36.8831H171.357C177.129 36.8831 182.114 32.2077 182.114 26.2337V13.7662C181.851 8.05192 177.129 3.11684 171.357 3.11684ZM158.764 0C151.156 0 145.122 6.23374 145.122 13.7662V26.2337C145.122 33.7662 151.156 40 158.764 40H171.357C178.965 40 185 33.7662 185 26.2337V13.7662C185 6.23374 178.965 0 171.357 0H158.764Z" fill="black"/>
</svg>
